<?xml version="1.0" encoding="utf-8"?><!-- Generator: Adobe Illustrator 24.3.0, SVG Export Plug-In . SVG Version: 6.00 Build 0)  -->
<svg style="enable-background:new 0 0 1000 1000;" id="Ebene_1" version="1.1" viewBox="0 0 1000 1000" x="0px"
    xmlns="http://www.w3.org/2000/svg" y="0px" xml:space="preserve">
<style type="text/css">
	.st0{fill:#2B5A4D;}
</style>
    <path class="st0" d="M141.5,430.8c-8.5-6.4-16.9-12.9-25.4-19.3c-37.1-27.8-49.5-48.7-55.6-95c-4.8,0-9.6,0.1-14.5,0
	c-14-0.5-22.6-8.2-28-20.6c-5.2-12.1-3.9-23.2,4.9-32.9c6.1-6.6,13.2-12.3,17.5-16.3c-6.9-8.2-13.8-17.2-21.3-25.5
	c-17-18.9-13.7-43.6,8-55.8c12.1-6.8,24.3-6.2,35.7,1.7c8.2,5.8,16.1,12.3,24.6,18.9c8.2-21,19.5-37.9,45.6-32.9
	c17.3,3.3,25.1,16.7,27.1,45.6c47.6-2,86,18.5,117.8,54.1c15.3-14.4,29.5-27.5,43.4-41.1c1.9-1.9,2.6-5.4,3.2-8.2
	c8.5-44.1,32.3-76.4,72.5-97.3c7.2-3.7,13-11.7,17.4-18.9c26.2-43.2,64.4-65.4,114.7-64.3c58.8,1.2,107,42.5,119.7,100.6
	c2.9,13.2,8,24.7,17.1,34.9c22.8,25.6,33.9,55.2,30.5,90c-1.6,15.2,2.3,30.4,10.9,43c3.9,5.8,7.7,7.4,14.8,5.9
	c61.2-12.3,116,0.8,163,42.8c26.1,23.3,42.9,52.5,52.8,85.8c1.6,5.3,3.9,7.4,9.6,7.5c8.2,0.2,16.4,1,24.6,2.2
	c13.7,1.9,19.6,8.7,19.8,22.7c0.5,33-4.4,65.8-14.3,97.2c-12.4,39.5-22.9,79.5-41.5,116.8c-33.8,67.8-82.3,122.7-143.7,166.6
	c-4.5,3.1-8.8,6.6-12.8,10.3c-6.2,6-7,13.7-6.3,22.1c2.3,27.1-1.4,52.8-19.8,74.2c-18.1,21.1-42.3,30.9-69.3,31
	c-104.7,0.6-209.3,0.6-314,0c-42-0.2-76.6-25.9-85.8-62.9c-3.3-13.6-4.6-27.6-3.8-41.6c0.7-13.8-3.7-22.9-14.7-30.6
	c-41.2-28.9-77.4-63.1-107.4-103.6c-44.2-59.8-71.1-126.8-82.6-200c-3.5-22.1-4.1-44.7-4.8-67.2c-0.7-23.1,10.2-34.8,33.1-36.5
	c12.2-0.9,24.5-0.2,36.7-0.2L141.5,430.8z M143.3,505.4c-0.3,0.9-0.4,1.9-0.5,2.8c0.5,3.8,1.1,7.6,1.6,11.4
	c16.5,116.7,74.8,206.9,173,271.4c8,5.3,18.8,8,28.5,8.7c20.2,1.5,40.6,0.9,60.9,0.9c101.1-0.1,202.2-0.1,303.2-0.8
	c9.2-0.2,18.3-3,26.1-7.9c87.5-57.2,144.5-136.3,167.7-238.7c3.5-15.6,5.9-31.5,8.8-47.7H143.3z M332.9,304.9l27.5,27.9l27.3,27.8
	c0.1-2.8-0.7-5.5-2.3-7.8c-3.8-6.6-8.4-13-11.3-20c-6.7-15-1.3-32.6,12.6-41.2c15.1-9.8,32.3-8.6,44.2,4.3
	c8.2,8.8,14.9,19,22.3,28.5c1.6,2,3.2,4,5.1,6.4c6.1-12.8-1.2-21.1-6.9-29.6c-9.9-14.8-20.8-29-30.2-44.1
	c-9.2-14.8-6.1-31.6,6.5-43.4c12.3-11.5,28.6-12.7,43.1-3.4l6.9,4.4c2.4-10.2,4.1-19.7,7-28.7c4.1-12.7,11.7-22.4,25.9-24.7
	c24.6-3.9,41.8,10.8,41.8,36.1c0,10.3-1.8,20.6-2.8,31.7c2.9-0.9,5.3-1.8,7.8-2.6c11-3.5,21.6-3.3,31.3,3.8
	c20.6,15,20.7,41-0.7,58.1c-13.2,10.6-27.4,20.2-41.5,29.7c-9.9,6.6-17.4,14.1-17.7,27.8c3.2-2.1,5.7-3.6,8.1-5.3
	c9.9-6.8,19.6-14.2,30-20.2c16.8-9.6,35.5-4.8,46.3,11c7.3,10.8,7.8,22.3,2.9,34.4l1.9,1.1c10.1-11.5,20.2-23.1,30.9-35.2
	c-4.4-5.5-8-11.5-12.9-16.1c-16.3-14.8-20.2-32.3-13.3-53c8.5-25.5,2.5-47.7-18.5-64.1c-17.1-13.3-24.7-29.3-24.7-50.8
	c0-25.2-18-46.9-42.8-51.6c-27.4-5.1-53.2,7-62.1,31.6c-7.8,21.8-21.7,34.8-43.3,42.4c-23.5,8.2-36.2,26.1-36.4,51.4
	c-0.3,23.7-9.8,40.9-32,50.9C348.9,278.6,338.1,290.4,332.9,304.9z M360.5,433.5c-43.4-42.7-84.9-83.8-126.6-124.7
	c-10.8-10.6-21-21.8-33-30.9c-26.9-20.5-65-4.1-68.3,29.1c-1.8,17.8,8.1,30.1,21.1,40.4c30.8,24.3,61.9,48.2,92.5,72.8
	c11.1,8.9,22.3,14.4,37.2,13.7C308.3,432.7,333.3,433.5,360.5,433.5z M351.4,873.5c-3,26.5,1.9,32.2,27.7,32.2
	c99.1,0,198.3,0,297.4,0c4.7,0,9.3-0.3,13.9-1c6.6-1,11.4-4.8,12.6-11.3c1.2-6.5,1.1-12.9,1.6-19.8L351.4,873.5z M862,432.8
	c-9.8-39.9-59.4-71.5-106.1-68.4c-41.8,2.7-87.9,37.3-91,68.4H862z M539,427.1l-0.1,2.9c6.2,1.6,12.2,4.2,18.5,4.6
	c8.1,0.5,16.4-1.1,24.6-1.2c5.2,0,6.9-2.4,8-7.1c1.7-6.8,3.9-13.5,6.7-20c4-9.5,8.6-18.8,13.9-30.3C585.2,394,562.1,410.5,539,427.1
	z" />
</svg>
